<mxfile host="app.diagrams.net" agent="Mozilla/5.0 (Windows NT 10.0; Win64; x64) AppleWebKit/537.36 (KHTML, like Gecko) Chrome/129.0.0.0 Safari/537.36" version="24.7.17" pages="2">
  <diagram name="C1" id="kNR_1Il8om0oYbwvjSjK">
    <mxGraphModel grid="1" page="1" gridSize="10" guides="1" tooltips="1" connect="1" arrows="1" fold="1" pageScale="1" pageWidth="850" pageHeight="1100" math="0" shadow="0">
      <root>
        <mxCell id="0" />
        <mxCell id="1" parent="0" />
        <mxCell id="909fOEefwF4Z3dxN_E-W-7" style="edgeStyle=orthogonalEdgeStyle;rounded=0;orthogonalLoop=1;jettySize=auto;html=1;entryX=0;entryY=0.5;entryDx=0;entryDy=0;" edge="1" parent="1" source="909fOEefwF4Z3dxN_E-W-1" target="909fOEefwF4Z3dxN_E-W-4">
          <mxGeometry relative="1" as="geometry" />
        </mxCell>
        <mxCell id="909fOEefwF4Z3dxN_E-W-1" value="" style="rounded=1;whiteSpace=wrap;html=1;" vertex="1" parent="1">
          <mxGeometry x="90" y="170" width="160" height="80" as="geometry" />
        </mxCell>
        <mxCell id="909fOEefwF4Z3dxN_E-W-2" value="Mobile" style="text;html=1;align=center;verticalAlign=middle;resizable=0;points=[];autosize=1;strokeColor=#d79b00;fillColor=#ffe6cc;" vertex="1" parent="1">
          <mxGeometry x="90" y="170" width="60" height="30" as="geometry" />
        </mxCell>
        <mxCell id="909fOEefwF4Z3dxN_E-W-3" value="" style="shape=image;verticalLabelPosition=bottom;labelBackgroundColor=default;verticalAlign=top;aspect=fixed;imageAspect=0;image=https://upload.wikimedia.org/wikipedia/commons/thumb/4/44/Google-flutter-logo.svg/2560px-Google-flutter-logo.svg.png;" vertex="1" parent="1">
          <mxGeometry x="110" y="209.28" width="110" height="31.44" as="geometry" />
        </mxCell>
        <mxCell id="909fOEefwF4Z3dxN_E-W-4" value="" style="rounded=1;whiteSpace=wrap;html=1;" vertex="1" parent="1">
          <mxGeometry x="330" y="170" width="160" height="80" as="geometry" />
        </mxCell>
        <mxCell id="909fOEefwF4Z3dxN_E-W-5" value="Backend for Mgmt" style="text;html=1;align=center;verticalAlign=middle;resizable=0;points=[];autosize=1;strokeColor=#b85450;fillColor=#f8cecc;" vertex="1" parent="1">
          <mxGeometry x="330" y="170" width="120" height="30" as="geometry" />
        </mxCell>
        <mxCell id="909fOEefwF4Z3dxN_E-W-6" value="" style="shape=image;verticalLabelPosition=bottom;labelBackgroundColor=default;verticalAlign=top;aspect=fixed;imageAspect=0;image=https://upload.wikimedia.org/wikipedia/commons/d/d9/Node.js_logo.svg;" vertex="1" parent="1">
          <mxGeometry x="370" y="209.28" width="80" height="48.95" as="geometry" />
        </mxCell>
        <mxCell id="909fOEefwF4Z3dxN_E-W-8" value="Call API" style="text;html=1;align=center;verticalAlign=middle;resizable=0;points=[];autosize=1;strokeColor=none;fillColor=none;" vertex="1" parent="1">
          <mxGeometry x="250" y="179.28" width="70" height="30" as="geometry" />
        </mxCell>
        <mxCell id="909fOEefwF4Z3dxN_E-W-18" style="edgeStyle=orthogonalEdgeStyle;rounded=0;orthogonalLoop=1;jettySize=auto;html=1;entryX=0.5;entryY=0;entryDx=0;entryDy=0;" edge="1" parent="1" source="909fOEefwF4Z3dxN_E-W-9" target="909fOEefwF4Z3dxN_E-W-16">
          <mxGeometry relative="1" as="geometry" />
        </mxCell>
        <mxCell id="909fOEefwF4Z3dxN_E-W-9" value="" style="rounded=1;whiteSpace=wrap;html=1;" vertex="1" parent="1">
          <mxGeometry x="328" y="320" width="160" height="80" as="geometry" />
        </mxCell>
        <mxCell id="909fOEefwF4Z3dxN_E-W-10" value="Notification Mgmt" style="text;html=1;align=center;verticalAlign=middle;resizable=0;points=[];autosize=1;strokeColor=#9673a6;fillColor=#e1d5e7;" vertex="1" parent="1">
          <mxGeometry x="330" y="320" width="120" height="30" as="geometry" />
        </mxCell>
        <mxCell id="909fOEefwF4Z3dxN_E-W-11" value="" style="shape=image;verticalLabelPosition=bottom;labelBackgroundColor=default;verticalAlign=top;aspect=fixed;imageAspect=0;image=https://upload.wikimedia.org/wikipedia/commons/d/d9/Node.js_logo.svg;" vertex="1" parent="1">
          <mxGeometry x="368" y="360" width="80" height="48.95" as="geometry" />
        </mxCell>
        <mxCell id="909fOEefwF4Z3dxN_E-W-13" value="Rules:&lt;br&gt;- Update task collab&lt;div&gt;- Schedule&lt;/div&gt;" style="text;html=1;align=left;verticalAlign=middle;resizable=0;points=[];autosize=1;strokeColor=none;fillColor=none;" vertex="1" parent="1">
          <mxGeometry x="190" y="340" width="130" height="60" as="geometry" />
        </mxCell>
        <mxCell id="909fOEefwF4Z3dxN_E-W-14" style="edgeStyle=orthogonalEdgeStyle;rounded=0;orthogonalLoop=1;jettySize=auto;html=1;entryX=0.661;entryY=0.289;entryDx=0;entryDy=0;entryPerimeter=0;" edge="1" parent="1" source="909fOEefwF4Z3dxN_E-W-4" target="909fOEefwF4Z3dxN_E-W-10">
          <mxGeometry relative="1" as="geometry" />
        </mxCell>
        <mxCell id="909fOEefwF4Z3dxN_E-W-15" value="Create schedule" style="text;html=1;align=center;verticalAlign=middle;resizable=0;points=[];autosize=1;strokeColor=none;fillColor=none;" vertex="1" parent="1">
          <mxGeometry x="410" y="280" width="110" height="30" as="geometry" />
        </mxCell>
        <mxCell id="909fOEefwF4Z3dxN_E-W-19" style="edgeStyle=orthogonalEdgeStyle;rounded=0;orthogonalLoop=1;jettySize=auto;html=1;entryX=0.25;entryY=1;entryDx=0;entryDy=0;" edge="1" parent="1" source="909fOEefwF4Z3dxN_E-W-16" target="909fOEefwF4Z3dxN_E-W-1">
          <mxGeometry relative="1" as="geometry" />
        </mxCell>
        <mxCell id="909fOEefwF4Z3dxN_E-W-16" value="" style="strokeColor=#dddddd;shadow=1;strokeWidth=1;rounded=1;absoluteArcSize=1;arcSize=2;" vertex="1" parent="1">
          <mxGeometry x="330" y="460" width="160" height="60" as="geometry" />
        </mxCell>
        <mxCell id="909fOEefwF4Z3dxN_E-W-17" value="Firebase" style="sketch=0;dashed=0;connectable=0;html=1;fillColor=#5184F3;strokeColor=none;shape=mxgraph.gcp2.firebase;part=1;labelPosition=right;verticalLabelPosition=middle;align=left;verticalAlign=middle;spacingLeft=5;fontColor=#999999;fontSize=12;" vertex="1" parent="909fOEefwF4Z3dxN_E-W-16">
          <mxGeometry width="32.4" height="45" relative="1" as="geometry">
            <mxPoint x="5" y="7" as="offset" />
          </mxGeometry>
        </mxCell>
        <mxCell id="909fOEefwF4Z3dxN_E-W-20" value="2 way communication&lt;div&gt;with OS&lt;/div&gt;" style="text;html=1;align=center;verticalAlign=middle;resizable=0;points=[];autosize=1;strokeColor=none;fillColor=none;" vertex="1" parent="1">
          <mxGeometry y="413" width="140" height="40" as="geometry" />
        </mxCell>
        <mxCell id="909fOEefwF4Z3dxN_E-W-21" value="" style="rounded=1;whiteSpace=wrap;html=1;" vertex="1" parent="1">
          <mxGeometry x="330" y="60" width="160" height="60" as="geometry" />
        </mxCell>
        <mxCell id="909fOEefwF4Z3dxN_E-W-22" value="Websocket Server" style="text;html=1;align=center;verticalAlign=middle;resizable=0;points=[];autosize=1;strokeColor=#b85450;fillColor=#f8cecc;" vertex="1" parent="1">
          <mxGeometry x="328" y="60" width="120" height="30" as="geometry" />
        </mxCell>
        <mxCell id="909fOEefwF4Z3dxN_E-W-23" style="edgeStyle=orthogonalEdgeStyle;rounded=0;orthogonalLoop=1;jettySize=auto;html=1;entryX=0.388;entryY=1.044;entryDx=0;entryDy=0;entryPerimeter=0;" edge="1" parent="1" source="909fOEefwF4Z3dxN_E-W-5" target="909fOEefwF4Z3dxN_E-W-21">
          <mxGeometry relative="1" as="geometry" />
        </mxCell>
        <mxCell id="909fOEefwF4Z3dxN_E-W-24" style="edgeStyle=orthogonalEdgeStyle;rounded=0;orthogonalLoop=1;jettySize=auto;html=1;entryX=0.563;entryY=0.067;entryDx=0;entryDy=0;entryPerimeter=0;" edge="1" parent="1" source="909fOEefwF4Z3dxN_E-W-21" target="909fOEefwF4Z3dxN_E-W-1">
          <mxGeometry relative="1" as="geometry" />
        </mxCell>
        <mxCell id="909fOEefwF4Z3dxN_E-W-25" value="2 way communication with&lt;div&gt;App, AppService&lt;/div&gt;" style="text;html=1;align=center;verticalAlign=middle;resizable=0;points=[];autosize=1;strokeColor=none;fillColor=none;" vertex="1" parent="1">
          <mxGeometry x="30" y="90" width="160" height="40" as="geometry" />
        </mxCell>
        <mxCell id="909fOEefwF4Z3dxN_E-W-26" value="" style="shape=cylinder3;whiteSpace=wrap;html=1;boundedLbl=1;backgroundOutline=1;size=15;" vertex="1" parent="1">
          <mxGeometry x="590" y="161" width="60" height="80" as="geometry" />
        </mxCell>
        <mxCell id="909fOEefwF4Z3dxN_E-W-27" style="edgeStyle=orthogonalEdgeStyle;rounded=0;orthogonalLoop=1;jettySize=auto;html=1;entryX=0.122;entryY=0.604;entryDx=0;entryDy=0;entryPerimeter=0;" edge="1" parent="1" source="909fOEefwF4Z3dxN_E-W-4" target="909fOEefwF4Z3dxN_E-W-26">
          <mxGeometry relative="1" as="geometry" />
        </mxCell>
        <mxCell id="909fOEefwF4Z3dxN_E-W-28" value="" style="shape=cylinder3;whiteSpace=wrap;html=1;boundedLbl=1;backgroundOutline=1;size=15;" vertex="1" parent="1">
          <mxGeometry x="590" y="328.95" width="60" height="80" as="geometry" />
        </mxCell>
        <mxCell id="909fOEefwF4Z3dxN_E-W-29" style="edgeStyle=orthogonalEdgeStyle;rounded=0;orthogonalLoop=1;jettySize=auto;html=1;entryX=0;entryY=0;entryDx=0;entryDy=27.5;entryPerimeter=0;" edge="1" parent="1" source="909fOEefwF4Z3dxN_E-W-9" target="909fOEefwF4Z3dxN_E-W-28">
          <mxGeometry relative="1" as="geometry" />
        </mxCell>
        <mxCell id="909fOEefwF4Z3dxN_E-W-30" value="MongoDB" style="text;html=1;align=center;verticalAlign=middle;resizable=0;points=[];autosize=1;strokeColor=none;fillColor=none;" vertex="1" parent="1">
          <mxGeometry x="650" y="345" width="80" height="30" as="geometry" />
        </mxCell>
        <mxCell id="909fOEefwF4Z3dxN_E-W-31" value="Postgres" style="text;html=1;align=center;verticalAlign=middle;resizable=0;points=[];autosize=1;strokeColor=none;fillColor=none;" vertex="1" parent="1">
          <mxGeometry x="650" y="186" width="70" height="30" as="geometry" />
        </mxCell>
      </root>
    </mxGraphModel>
  </diagram>
  <diagram name="Infra" id="V54Rm9DNg6mNzVKAfNGz">
    <mxGraphModel grid="1" page="1" gridSize="10" guides="1" tooltips="1" connect="1" arrows="1" fold="1" pageScale="1" pageWidth="850" pageHeight="1100" math="0" shadow="0">
      <root>
        <mxCell id="bu0K0QvERHHZfACwBAh--0" />
        <mxCell id="bu0K0QvERHHZfACwBAh--1" parent="bu0K0QvERHHZfACwBAh--0" />
        <mxCell id="t-SPTYhIIlKbrrQGKQca-3" value="" style="rounded=1;whiteSpace=wrap;html=1;" vertex="1" parent="bu0K0QvERHHZfACwBAh--1">
          <mxGeometry x="540" y="183.5" width="271" height="320" as="geometry" />
        </mxCell>
        <mxCell id="bu0K0QvERHHZfACwBAh--3" value="" style="rounded=1;whiteSpace=wrap;html=1;" parent="bu0K0QvERHHZfACwBAh--1" vertex="1">
          <mxGeometry x="90" y="170" width="160" height="80" as="geometry" />
        </mxCell>
        <mxCell id="bu0K0QvERHHZfACwBAh--4" value="Mobile" style="text;html=1;align=center;verticalAlign=middle;resizable=0;points=[];autosize=1;strokeColor=#d79b00;fillColor=#ffe6cc;" parent="bu0K0QvERHHZfACwBAh--1" vertex="1">
          <mxGeometry x="90" y="170" width="60" height="30" as="geometry" />
        </mxCell>
        <mxCell id="bu0K0QvERHHZfACwBAh--5" value="" style="shape=image;verticalLabelPosition=bottom;labelBackgroundColor=default;verticalAlign=top;aspect=fixed;imageAspect=0;image=https://upload.wikimedia.org/wikipedia/commons/thumb/4/44/Google-flutter-logo.svg/2560px-Google-flutter-logo.svg.png;" parent="bu0K0QvERHHZfACwBAh--1" vertex="1">
          <mxGeometry x="110" y="209.28" width="110" height="31.44" as="geometry" />
        </mxCell>
        <mxCell id="bu0K0QvERHHZfACwBAh--6" value="" style="rounded=1;whiteSpace=wrap;html=1;" parent="bu0K0QvERHHZfACwBAh--1" vertex="1">
          <mxGeometry x="591" y="280.27" width="160" height="80" as="geometry" />
        </mxCell>
        <mxCell id="bu0K0QvERHHZfACwBAh--7" value="Backend for Mgmt" style="text;html=1;align=center;verticalAlign=middle;resizable=0;points=[];autosize=1;strokeColor=#b85450;fillColor=#f8cecc;" parent="bu0K0QvERHHZfACwBAh--1" vertex="1">
          <mxGeometry x="591" y="280.27" width="120" height="30" as="geometry" />
        </mxCell>
        <mxCell id="bu0K0QvERHHZfACwBAh--8" value="" style="shape=image;verticalLabelPosition=bottom;labelBackgroundColor=default;verticalAlign=top;aspect=fixed;imageAspect=0;image=https://upload.wikimedia.org/wikipedia/commons/d/d9/Node.js_logo.svg;" parent="bu0K0QvERHHZfACwBAh--1" vertex="1">
          <mxGeometry x="631" y="319.55" width="80" height="48.95" as="geometry" />
        </mxCell>
        <mxCell id="bu0K0QvERHHZfACwBAh--9" value="Call API" style="text;html=1;align=center;verticalAlign=middle;resizable=0;points=[];autosize=1;strokeColor=none;fillColor=none;" parent="bu0K0QvERHHZfACwBAh--1" vertex="1">
          <mxGeometry x="180" y="130" width="70" height="30" as="geometry" />
        </mxCell>
        <mxCell id="t-SPTYhIIlKbrrQGKQca-12" style="edgeStyle=orthogonalEdgeStyle;rounded=0;orthogonalLoop=1;jettySize=auto;html=1;entryX=0;entryY=0.5;entryDx=0;entryDy=0;" edge="1" parent="bu0K0QvERHHZfACwBAh--1" source="bu0K0QvERHHZfACwBAh--11">
          <mxGeometry relative="1" as="geometry">
            <mxPoint x="850" y="432.02" as="targetPoint" />
          </mxGeometry>
        </mxCell>
        <mxCell id="bu0K0QvERHHZfACwBAh--11" value="" style="rounded=1;whiteSpace=wrap;html=1;" parent="bu0K0QvERHHZfACwBAh--1" vertex="1">
          <mxGeometry x="591" y="392.02" width="160" height="80" as="geometry" />
        </mxCell>
        <mxCell id="bu0K0QvERHHZfACwBAh--12" value="Notification Mgmt" style="text;html=1;align=center;verticalAlign=middle;resizable=0;points=[];autosize=1;strokeColor=#9673a6;fillColor=#e1d5e7;" parent="bu0K0QvERHHZfACwBAh--1" vertex="1">
          <mxGeometry x="593" y="392.02" width="120" height="30" as="geometry" />
        </mxCell>
        <mxCell id="bu0K0QvERHHZfACwBAh--13" value="" style="shape=image;verticalLabelPosition=bottom;labelBackgroundColor=default;verticalAlign=top;aspect=fixed;imageAspect=0;image=https://upload.wikimedia.org/wikipedia/commons/d/d9/Node.js_logo.svg;" parent="bu0K0QvERHHZfACwBAh--1" vertex="1">
          <mxGeometry x="631" y="432.02" width="80" height="48.95" as="geometry" />
        </mxCell>
        <mxCell id="bu0K0QvERHHZfACwBAh--21" value="" style="rounded=1;whiteSpace=wrap;html=1;" parent="bu0K0QvERHHZfACwBAh--1" vertex="1">
          <mxGeometry x="633" y="195" width="138" height="60" as="geometry" />
        </mxCell>
        <mxCell id="bu0K0QvERHHZfACwBAh--22" value="Websocket Server" style="text;html=1;align=center;verticalAlign=middle;resizable=0;points=[];autosize=1;strokeColor=#b85450;fillColor=#f8cecc;" parent="bu0K0QvERHHZfACwBAh--1" vertex="1">
          <mxGeometry x="631" y="195" width="120" height="30" as="geometry" />
        </mxCell>
        <mxCell id="bu0K0QvERHHZfACwBAh--25" value="2 way communication with&lt;div&gt;App, AppService&lt;/div&gt;" style="text;html=1;align=center;verticalAlign=middle;resizable=0;points=[];autosize=1;strokeColor=none;fillColor=none;" parent="bu0K0QvERHHZfACwBAh--1" vertex="1">
          <mxGeometry x="30" y="90" width="160" height="40" as="geometry" />
        </mxCell>
        <mxCell id="bu0K0QvERHHZfACwBAh--26" value="" style="shape=cylinder3;whiteSpace=wrap;html=1;boundedLbl=1;backgroundOutline=1;size=15;" parent="bu0K0QvERHHZfACwBAh--1" vertex="1">
          <mxGeometry x="870" y="392.02" width="60" height="80" as="geometry" />
        </mxCell>
        <mxCell id="bu0K0QvERHHZfACwBAh--31" value="Postgres" style="text;html=1;align=center;verticalAlign=middle;resizable=0;points=[];autosize=1;strokeColor=none;fillColor=none;" parent="bu0K0QvERHHZfACwBAh--1" vertex="1">
          <mxGeometry x="830" y="160" width="70" height="30" as="geometry" />
        </mxCell>
        <mxCell id="t-SPTYhIIlKbrrQGKQca-6" style="edgeStyle=orthogonalEdgeStyle;rounded=0;orthogonalLoop=1;jettySize=auto;html=1;" edge="1" parent="bu0K0QvERHHZfACwBAh--1" source="t-SPTYhIIlKbrrQGKQca-0" target="t-SPTYhIIlKbrrQGKQca-2">
          <mxGeometry relative="1" as="geometry" />
        </mxCell>
        <mxCell id="t-SPTYhIIlKbrrQGKQca-7" style="edgeStyle=orthogonalEdgeStyle;rounded=0;orthogonalLoop=1;jettySize=auto;html=1;" edge="1" parent="bu0K0QvERHHZfACwBAh--1" source="t-SPTYhIIlKbrrQGKQca-0" target="t-SPTYhIIlKbrrQGKQca-5">
          <mxGeometry relative="1" as="geometry" />
        </mxCell>
        <mxCell id="t-SPTYhIIlKbrrQGKQca-0" value="" style="image;sketch=0;aspect=fixed;html=1;points=[];align=center;fontSize=12;image=img/lib/mscae/Front_Doors.svg;" vertex="1" parent="bu0K0QvERHHZfACwBAh--1">
          <mxGeometry x="300" y="179.5" width="69.32" height="61" as="geometry" />
        </mxCell>
        <mxCell id="t-SPTYhIIlKbrrQGKQca-1" style="edgeStyle=orthogonalEdgeStyle;rounded=0;orthogonalLoop=1;jettySize=auto;html=1;entryX=0;entryY=0.522;entryDx=0;entryDy=0;entryPerimeter=0;" edge="1" parent="bu0K0QvERHHZfACwBAh--1" source="bu0K0QvERHHZfACwBAh--3" target="t-SPTYhIIlKbrrQGKQca-0">
          <mxGeometry relative="1" as="geometry" />
        </mxCell>
        <mxCell id="t-SPTYhIIlKbrrQGKQca-2" value="" style="sketch=0;outlineConnect=0;fontColor=#232F3E;gradientColor=none;fillColor=#7AA116;strokeColor=none;dashed=0;verticalLabelPosition=bottom;verticalAlign=top;align=center;html=1;fontSize=12;fontStyle=0;aspect=fixed;pointerEvents=1;shape=mxgraph.aws4.file_cache_s3_linked_datasets;" vertex="1" parent="bu0K0QvERHHZfACwBAh--1">
          <mxGeometry x="400" y="41" width="78" height="78" as="geometry" />
        </mxCell>
        <mxCell id="t-SPTYhIIlKbrrQGKQca-4" value="" style="sketch=0;points=[[0,0,0],[0.25,0,0],[0.5,0,0],[0.75,0,0],[1,0,0],[0,1,0],[0.25,1,0],[0.5,1,0],[0.75,1,0],[1,1,0],[0,0.25,0],[0,0.5,0],[0,0.75,0],[1,0.25,0],[1,0.5,0],[1,0.75,0]];outlineConnect=0;fontColor=#232F3E;fillColor=#ED7100;strokeColor=#ffffff;dashed=0;verticalLabelPosition=bottom;verticalAlign=top;align=center;html=1;fontSize=12;fontStyle=0;aspect=fixed;shape=mxgraph.aws4.resourceIcon;resIcon=mxgraph.aws4.ecs_anywhere;" vertex="1" parent="bu0K0QvERHHZfACwBAh--1">
          <mxGeometry x="540" y="179.5" width="64" height="64" as="geometry" />
        </mxCell>
        <mxCell id="t-SPTYhIIlKbrrQGKQca-9" value="" style="edgeStyle=orthogonalEdgeStyle;rounded=0;orthogonalLoop=1;jettySize=auto;html=1;entryX=-0.015;entryY=0.347;entryDx=0;entryDy=0;entryPerimeter=0;" edge="1" parent="bu0K0QvERHHZfACwBAh--1" source="t-SPTYhIIlKbrrQGKQca-5" target="t-SPTYhIIlKbrrQGKQca-3">
          <mxGeometry relative="1" as="geometry" />
        </mxCell>
        <mxCell id="t-SPTYhIIlKbrrQGKQca-5" value="" style="outlineConnect=0;dashed=0;verticalLabelPosition=bottom;verticalAlign=top;align=center;html=1;shape=mxgraph.aws3.api_gateway;fillColor=#D9A741;gradientColor=none;" vertex="1" parent="bu0K0QvERHHZfACwBAh--1">
          <mxGeometry x="400" y="250" width="76.5" height="93" as="geometry" />
        </mxCell>
        <mxCell id="t-SPTYhIIlKbrrQGKQca-13" value="Mongo" style="text;html=1;align=center;verticalAlign=middle;resizable=0;points=[];autosize=1;strokeColor=none;fillColor=none;" vertex="1" parent="bu0K0QvERHHZfACwBAh--1">
          <mxGeometry x="870" y="360.27" width="60" height="30" as="geometry" />
        </mxCell>
        <mxCell id="t-SPTYhIIlKbrrQGKQca-14" value="" style="strokeColor=#dddddd;shadow=1;strokeWidth=1;rounded=1;absoluteArcSize=1;arcSize=2;" vertex="1" parent="bu0K0QvERHHZfACwBAh--1">
          <mxGeometry x="580" y="540" width="160" height="60" as="geometry" />
        </mxCell>
        <mxCell id="t-SPTYhIIlKbrrQGKQca-15" value="Firebase" style="sketch=0;dashed=0;connectable=0;html=1;fillColor=#5184F3;strokeColor=none;shape=mxgraph.gcp2.firebase;part=1;labelPosition=right;verticalLabelPosition=middle;align=left;verticalAlign=middle;spacingLeft=5;fontColor=#999999;fontSize=12;" vertex="1" parent="t-SPTYhIIlKbrrQGKQca-14">
          <mxGeometry width="32.4" height="45" relative="1" as="geometry">
            <mxPoint x="5" y="7" as="offset" />
          </mxGeometry>
        </mxCell>
        <mxCell id="t-SPTYhIIlKbrrQGKQca-16" style="edgeStyle=orthogonalEdgeStyle;rounded=0;orthogonalLoop=1;jettySize=auto;html=1;entryX=0.554;entryY=0.133;entryDx=0;entryDy=0;entryPerimeter=0;" edge="1" parent="bu0K0QvERHHZfACwBAh--1" source="bu0K0QvERHHZfACwBAh--13" target="t-SPTYhIIlKbrrQGKQca-14">
          <mxGeometry relative="1" as="geometry" />
        </mxCell>
        <mxCell id="t-SPTYhIIlKbrrQGKQca-17" value="" style="shape=cylinder3;whiteSpace=wrap;html=1;boundedLbl=1;backgroundOutline=1;size=15;" vertex="1" parent="bu0K0QvERHHZfACwBAh--1">
          <mxGeometry x="870" y="194.99999999999997" width="60" height="80" as="geometry" />
        </mxCell>
        <mxCell id="t-SPTYhIIlKbrrQGKQca-18" style="edgeStyle=orthogonalEdgeStyle;rounded=0;orthogonalLoop=1;jettySize=auto;html=1;entryX=0;entryY=0.5;entryDx=0;entryDy=0;entryPerimeter=0;" edge="1" parent="bu0K0QvERHHZfACwBAh--1" source="bu0K0QvERHHZfACwBAh--6" target="t-SPTYhIIlKbrrQGKQca-17">
          <mxGeometry relative="1" as="geometry" />
        </mxCell>
        <mxCell id="t-SPTYhIIlKbrrQGKQca-19" value="CloudWatch" style="rounded=1;whiteSpace=wrap;html=1;" vertex="1" parent="bu0K0QvERHHZfACwBAh--1">
          <mxGeometry x="550" y="70" width="360" height="60" as="geometry" />
        </mxCell>
        <mxCell id="t-SPTYhIIlKbrrQGKQca-20" style="edgeStyle=orthogonalEdgeStyle;rounded=0;orthogonalLoop=1;jettySize=auto;html=1;entryX=0.86;entryY=0.038;entryDx=0;entryDy=0;entryPerimeter=0;" edge="1" parent="bu0K0QvERHHZfACwBAh--1" source="t-SPTYhIIlKbrrQGKQca-19" target="bu0K0QvERHHZfACwBAh--6">
          <mxGeometry relative="1" as="geometry" />
        </mxCell>
        <mxCell id="t-SPTYhIIlKbrrQGKQca-21" value="Static" style="text;html=1;align=center;verticalAlign=middle;resizable=0;points=[];autosize=1;strokeColor=none;fillColor=none;" vertex="1" parent="bu0K0QvERHHZfACwBAh--1">
          <mxGeometry x="345" y="98" width="50" height="30" as="geometry" />
        </mxCell>
        <mxCell id="t-SPTYhIIlKbrrQGKQca-22" value="Non-static" style="text;html=1;align=center;verticalAlign=middle;resizable=0;points=[];autosize=1;strokeColor=none;fillColor=none;" vertex="1" parent="bu0K0QvERHHZfACwBAh--1">
          <mxGeometry x="320" y="289.55" width="80" height="30" as="geometry" />
        </mxCell>
      </root>
    </mxGraphModel>
  </diagram>
</mxfile>
